<svg width="101" height="42" viewBox="0 0 101 42" fill="none" xmlns="http://www.w3.org/2000/svg">
<path d="M13.5577 6.34135C15.9582 6.34135 17.8444 6.60515 19.2161 7.13273C20.5878 7.63394 21.5638 8.51764 22.1442 9.78385C22.7509 11.0237 23.0543 12.7911 23.0543 15.0861C23.0543 17.3811 22.7641 19.1617 22.1837 20.4279C21.6298 21.6941 20.6933 22.5778 19.3744 23.079C18.0818 23.5802 16.3539 23.8308 14.1908 23.8308C13.0038 23.8308 11.8563 23.7912 10.7483 23.7121C9.66679 23.633 8.65119 23.5274 7.70154 23.3955C6.77826 23.2636 5.98688 23.1317 5.3274 22.9999C4.66792 22.8416 4.20628 22.7097 3.94249 22.6042L4.0612 19.953C5.56482 19.953 7.108 19.953 8.69076 19.953C10.2999 19.953 11.8958 19.953 13.4786 19.953C14.6393 19.9267 15.5494 19.7816 16.2088 19.5178C16.8947 19.254 17.3695 18.7792 17.6333 18.0933C17.9235 17.3811 18.0686 16.3787 18.0686 15.0861C18.0686 13.7935 17.9235 12.8043 17.6333 12.1184C17.3695 11.4062 16.8947 10.9182 16.2088 10.6544C15.5494 10.3642 14.6393 10.2191 13.4786 10.2191C11.1572 10.2191 9.16558 10.2323 7.50369 10.2587C5.8418 10.2851 4.70749 10.3246 4.10077 10.3774L3.5468 6.69747C4.60197 6.59196 5.5912 6.51282 6.51447 6.46006C7.46412 6.4073 8.47972 6.38093 9.56127 6.38093C10.6692 6.35454 12.0014 6.34135 13.5577 6.34135ZM8.49291 6.69747V34H3.5468V6.69747H8.49291ZM36.806 14.0969C38.3624 14.0969 39.6681 14.3079 40.7233 14.73C41.8049 15.1256 42.6226 15.8115 43.1766 16.7875C43.7305 17.7636 44.0075 19.1089 44.0075 20.8236V34H40.2089L39.5362 29.8057L39.1801 29.2517V20.784C39.1801 19.7552 38.9427 19.0166 38.4679 18.5681C37.9931 18.0933 37.083 17.8559 35.7376 17.8559C34.7352 17.8559 33.469 17.8955 31.939 17.9746C30.4354 18.0537 28.9186 18.1593 27.3886 18.2912L26.9533 15.0069C27.8766 14.8223 28.9186 14.664 30.0793 14.5321C31.24 14.4002 32.4138 14.2947 33.6009 14.2156C34.788 14.1364 35.8563 14.0969 36.806 14.0969ZM41.9499 22.0502L41.9104 25.0179H33.0074C32.216 25.0442 31.6488 25.2553 31.3059 25.651C30.963 26.0467 30.7915 26.5874 30.7915 27.2733V28.3417C30.7915 29.133 31.0026 29.7398 31.4246 30.1618C31.8467 30.5575 32.5062 30.7554 33.4031 30.7554C34.1153 30.7554 34.9067 30.6103 35.7772 30.3201C36.6477 30.0299 37.505 29.6079 38.3492 29.0539C39.2197 28.4999 39.9979 27.8404 40.6837 27.0754V29.5683C40.4199 29.964 40.0374 30.4388 39.5362 30.9928C39.035 31.5204 38.4151 32.0479 37.6765 32.5755C36.9643 33.1031 36.1333 33.5384 35.1837 33.8813C34.2604 34.2242 33.2316 34.3957 32.0973 34.3957C30.9366 34.3957 29.8946 34.1978 28.9714 33.8022C28.0481 33.3801 27.3226 32.7734 26.7951 31.982C26.2675 31.1642 26.0037 30.1618 26.0037 28.9748V26.9172C26.0037 25.3872 26.5049 24.2001 27.5073 23.356C28.5361 22.4855 29.9342 22.0502 31.7016 22.0502H41.9499ZM61.9934 14.0969C65.6074 14.0969 67.4144 15.8775 67.4144 19.4387V34H62.6265V20.9027C62.6265 19.8475 62.4419 19.1221 62.0726 18.7264C61.7033 18.3307 61.0833 18.1329 60.2128 18.1329C59.2368 18.1329 58.2344 18.3571 57.2056 18.8056C56.1768 19.2276 54.937 19.8475 53.4861 20.6653L53.2883 17.7768C54.7128 16.5897 56.1636 15.6796 57.6409 15.0465C59.1181 14.4134 60.569 14.0969 61.9934 14.0969ZM53.13 14.5717L53.6048 18.3703L54.0005 18.9243V34H49.2127V14.5717H53.13ZM94.8068 6.30179L94.7673 28.1438C94.7673 28.8824 94.9783 29.4496 95.4004 29.8453C95.8224 30.2146 96.4292 30.3992 97.2205 30.3992H98.922L99.476 33.7626C99.1858 33.8945 98.7769 34.0132 98.2493 34.1187C97.7481 34.2242 97.2205 34.2902 96.6666 34.3166C96.139 34.3693 95.6774 34.3957 95.2817 34.3957C93.6725 34.3957 92.3931 33.9604 91.4435 33.0899C90.4938 32.2194 90.019 30.9664 90.019 29.3309V6.30179H94.8068Z" fill="white"/>
<rect x="70.7661" y="14.7832" width="16.6606" height="4.68579" fill="#1270B0"/>
<rect x="70.7661" y="22.0723" width="16.6606" height="4.68579" fill="#1270B0"/>
<rect x="70.7661" y="29.8848" width="16.6606" height="4.68579" fill="#1270B0"/>
</svg>
