<svg width="180" height="99" viewBox="0 0 180 99" fill="none" xmlns="http://www.w3.org/2000/svg">
<g clip-path="url(#clip0_3582_1833)">
<path d="M7.14606 94.2364C12.0595 97.776 18.4269 97.9537 24.5817 97.5189C25.4411 97.4582 26.2945 97.3871 27.1399 97.3103C27.1451 97.309 27.1518 97.3095 27.1569 97.3082C27.1976 97.3043 27.2383 97.3004 27.2772 97.2981C27.4517 97.2818 27.6263 97.2655 27.7991 97.249L27.7583 97.327L27.6301 97.5687C27.6762 97.4878 27.7222 97.4086 27.7683 97.3277C27.7818 97.3034 27.797 97.2792 27.8105 97.2549C29.4049 94.4803 30.9863 91.6038 31.3897 88.4355C31.8066 85.1469 30.6348 81.4232 27.7405 79.8069C27.361 79.5955 26.959 79.4272 26.5421 79.305C26.369 79.2524 26.1935 79.2097 26.0161 79.1719C24.9306 78.9309 23.8005 78.9833 22.742 79.3238C21.6835 79.6643 20.7348 80.2806 19.9935 81.1093C19.2521 81.938 18.7449 82.9493 18.5239 84.039C18.3029 85.1287 18.3761 86.2577 18.7361 87.3097C16.2822 84.7935 16.74 80.7116 17.5864 77.3002C18.4345 73.8888 19.4612 70.0928 17.7363 67.0287C16.7774 65.3232 15.0912 64.2651 13.1988 63.8388C13.1408 63.8263 13.0828 63.8138 13.0246 63.803C10.77 63.3463 8.42598 63.757 6.46089 64.953C2.84255 67.2332 0.984121 71.5564 0.380953 75.7913C-0.590861 82.6061 1.55978 90.2116 7.14606 94.2364Z" fill="#F1F1F1"/>
<path d="M8.73222 83.312C8.87486 84.8152 9.23595 86.2895 9.80409 87.6885C10.3277 88.9265 11.0334 90.0793 11.8979 91.1086C13.6639 93.2329 15.9989 94.83 18.5349 95.8942C20.4739 96.6883 22.5055 97.2342 24.5815 97.5189C25.4409 97.4582 26.2943 97.3871 27.1397 97.3103C27.1449 97.309 27.1516 97.3094 27.1567 97.3081C27.1974 97.3043 27.2381 97.3004 27.277 97.2981C27.4515 97.2817 27.6261 97.2654 27.7989 97.249L27.7581 97.3269L27.6299 97.5687C27.676 97.4878 27.722 97.4085 27.7681 97.3276C27.7816 97.3033 27.7968 97.2791 27.8103 97.2548C26.2539 95.7042 25.0919 93.8032 24.4216 91.711C23.7513 89.6188 23.5923 87.3964 23.9578 85.2301C24.3402 83.079 25.2257 81.0488 26.5419 79.3049C26.3688 79.2523 26.1933 79.2097 26.0159 79.1719C25.5157 79.8557 25.0769 80.5825 24.7047 81.3436C23.3692 84.058 22.9431 87.1303 23.4895 90.1058C23.9976 92.7983 25.2632 95.29 27.1379 97.2883C26.9738 97.2767 26.808 97.2633 26.6458 97.2485C23.5735 96.9882 20.5075 96.3278 17.7209 94.9749C15.339 93.8465 13.271 92.1498 11.6993 90.034C10.0116 87.7065 9.26793 84.9068 9.14018 82.0614C9.00472 79.015 9.39999 75.9152 10.0952 72.9526C10.8051 69.9155 11.884 66.9767 13.3078 64.2016C13.3396 64.1387 13.346 64.0659 13.3257 63.9984C13.3054 63.9308 13.2599 63.8737 13.1986 63.8388C13.1476 63.8043 13.085 63.7915 13.0244 63.8029C12.9948 63.8108 12.9674 63.8252 12.9441 63.8451C12.9208 63.865 12.9024 63.89 12.8901 63.918C12.7144 64.2608 12.542 64.6039 12.3762 64.9507C10.9952 67.84 9.97844 70.8897 9.34933 74.0296C8.7386 77.0587 8.41262 80.2274 8.73222 83.312Z" fill="white"/>
<path d="M71.0351 98.37H0.185956C0.136637 98.37 0.0893385 98.3504 0.054465 98.3155C0.0195916 98.2806 0 98.2333 0 98.184C0 98.1347 0.0195916 98.0874 0.054465 98.0525C0.0893385 98.0176 0.136637 97.998 0.185956 97.998H71.0351C71.0844 97.998 71.1317 98.0176 71.1666 98.0525C71.2014 98.0874 71.221 98.1347 71.221 98.184C71.221 98.2333 71.2014 98.2806 71.1666 98.3155C71.1317 98.3504 71.0844 98.37 71.0351 98.37Z" fill="#CBCBCB"/>
<path d="M49.7676 48.4344L46.564 32.7368L45.1568 21.1426L42.0391 23.1595L42.4697 35.9363L47.4459 49.1743C47.2859 49.4789 47.2202 49.8242 47.257 50.1663C47.2939 50.5083 47.4316 50.8317 47.6527 51.0953C47.8738 51.3589 48.1682 51.5508 48.4987 51.6466C48.8291 51.7424 49.1806 51.7377 49.5084 51.6333C49.8361 51.5288 50.1255 51.3292 50.3395 51.0599C50.5536 50.7905 50.6827 50.4636 50.7105 50.1207C50.7383 49.7778 50.6635 49.4344 50.4956 49.1341C50.3277 48.8338 50.0743 48.5902 49.7676 48.4344Z" fill="#FFB7B7"/>
<path d="M19.8049 49.6487L20.6916 33.6522L20.3979 21.9766L24.5196 23.5186L25.2076 36.2223L22.2095 50.0432C22.412 50.3213 22.5272 50.6534 22.5405 50.9972C22.5539 51.3409 22.4646 51.6809 22.2842 51.9739C22.1038 52.2668 21.8404 52.4995 21.5274 52.6423C21.2144 52.7851 20.866 52.8316 20.5265 52.7759C20.187 52.7202 19.8717 52.5648 19.6208 52.3295C19.3698 52.0942 19.1945 51.7895 19.1172 51.4543C19.0398 51.1191 19.0639 50.7684 19.1863 50.4469C19.3088 50.1254 19.5241 49.8476 19.8049 49.6487Z" fill="#FFB7B7"/>
<path d="M28.4374 96.1567L30.5433 96.1565L31.5453 88.0332L28.437 88.0334L28.4374 96.1567Z" fill="#FFB7B7"/>
<path d="M27.8999 95.4689L32.0475 95.4688C32.7485 95.4688 33.4209 95.7473 33.9166 96.2429C34.4123 96.7386 34.6908 97.4109 34.6908 98.1119V98.1978L27.9 98.198L27.8999 95.4689Z" fill="#2F2E41"/>
<path d="M36.4146 95.225L38.4958 95.5469L40.728 87.6724L37.6564 87.1973L36.4146 95.225Z" fill="#FFB7B7"/>
<path d="M35.9884 94.4629L40.0873 95.0969C40.78 95.2041 41.402 95.5822 41.816 96.1478C42.2301 96.7134 42.4025 97.4204 42.2954 98.1131L42.2822 98.198L35.5713 97.1599L35.9884 94.4629Z" fill="#2F2E41"/>
<path d="M27.8185 93.7299L27.8075 93.671L20.1833 52.4492C19.5781 49.1399 20.0608 45.7237 21.5593 42.7117L26.174 33.4824L39.9436 35.3479L41.5687 47.0982L47.3598 69.5136L47.354 69.5319L39.9344 93.1001L35.0717 93.42L39.3792 72.3819L31.4919 54.4676L32.0483 93.4094L27.8185 93.7299Z" fill="#2F2E41"/>
<path d="M40.2644 36.8533L40.1735 36.7109C40.1572 36.6852 38.4846 34.1652 33.9331 35.8478C29.2867 37.5657 25.6865 34.2477 25.6506 34.214L25.6328 34.1972L24.5806 24.8184L23.3384 17.2047L27.2925 16.511L29.2366 15.3447L36.9669 15.207L39.0012 16.807L42.3411 17.171L42.6468 24.1084L42.6454 24.116L40.2644 36.8533Z" fill="#1270B0"/>
<path d="M41.3721 24.7786V18.8382L42.3113 17.1242L42.3494 17.123C43.0888 17.1506 43.7876 17.4681 44.2947 18.0069C45.2393 18.9667 45.6673 20.5658 45.5666 22.7598L45.5648 22.7999L41.3721 24.7786Z" fill="#1270B0"/>
<path d="M25.0024 24.1334L20.2155 23.559L20.2118 23.5038C20.0485 21.1168 20.4651 19.3448 21.4501 18.2373C22.3441 17.2322 23.3685 17.1714 23.4117 17.1693L23.4393 17.168L24.7351 18.346L25.0024 24.1334Z" fill="#1270B0"/>
<path d="M38.8592 12.8134H26.2629C26.0038 12.8131 25.7554 12.7101 25.5722 12.5269C25.389 12.3436 25.2859 12.0952 25.2856 11.8361V7.27542C25.2856 5.34586 26.0522 3.49533 27.4166 2.13092C28.781 0.766515 30.6315 0 32.5611 0C34.4906 0 36.3412 0.766515 37.7056 2.13092C39.07 3.49533 39.8365 5.34586 39.8365 7.27542V11.8361C39.8362 12.0952 39.7331 12.3436 39.5499 12.5269C39.3667 12.7101 39.1183 12.8131 38.8592 12.8134Z" fill="#2F2E41"/>
<path d="M37.5341 9.99331C38.9472 7.40839 37.9972 4.1674 35.4122 2.75435C32.8273 1.34131 29.5863 2.29131 28.1733 4.87623C26.7602 7.46115 27.7102 10.7021 30.2952 12.1152C32.8801 13.5282 36.1211 12.5782 37.5341 9.99331Z" fill="#FFB7B7"/>
<path d="M37.9234 7.59963H30.8811C30.7488 7.59946 30.6211 7.55105 30.522 7.46348C30.4228 7.37591 30.3589 7.25519 30.3424 7.12392L30.2512 6.39456C30.2424 6.32443 30.2111 6.25904 30.1619 6.20827C30.1128 6.15751 30.0484 6.12411 29.9786 6.11312C29.9088 6.10213 29.8373 6.11414 29.7749 6.14735C29.7125 6.18056 29.6626 6.23316 29.6327 6.29721L29.1711 7.28638C29.1272 7.37984 29.0576 7.4589 28.9705 7.51435C28.8834 7.56981 28.7824 7.59939 28.6791 7.59963H27.6094C27.5337 7.59965 27.4589 7.58385 27.3897 7.55324C27.3205 7.52264 27.2584 7.4779 27.2075 7.4219C27.1566 7.3659 27.118 7.29988 27.0941 7.22808C27.0703 7.15627 27.0617 7.08027 27.0689 7.00495L27.4907 2.59927C27.4997 2.50501 27.533 2.41472 27.5874 2.33721C27.6418 2.25969 27.7154 2.19763 27.801 2.15707C31.0261 0.651468 34.2966 0.653374 37.5218 2.1628C37.6036 2.20125 37.6745 2.25949 37.7282 2.33226C37.7818 2.40503 37.8165 2.49002 37.829 2.57954L38.4608 6.9795C38.4719 7.05653 38.4663 7.13506 38.4444 7.20974C38.4225 7.28442 38.3848 7.35351 38.3338 7.41232C38.2828 7.47114 38.2198 7.51831 38.149 7.55063C38.0782 7.58295 38.0013 7.59966 37.9234 7.59963Z" fill="#2F2E41"/>
<path d="M49.7839 49.4366L49.521 49.1737L60.9502 37.7443H83.099L94.274 26.3387H116.137L127.167 15.2227H178.512V15.5946H127.322L116.292 26.7106H94.4302L83.2552 38.1162H61.1044L49.7839 49.4366Z" fill="#3F3D56"/>
<path d="M94.6465 33.4717C98.4464 33.4717 101.527 30.3912 101.527 26.5913C101.527 22.7914 98.4464 19.7109 94.6465 19.7109C90.8466 19.7109 87.7661 22.7914 87.7661 26.5913C87.7661 30.3912 90.8466 33.4717 94.6465 33.4717Z" fill="white"/>
<path d="M127.375 17.2933C128.402 17.2933 129.234 16.4608 129.234 15.4338C129.234 14.4068 128.402 13.5742 127.375 13.5742C126.348 13.5742 125.515 14.4068 125.515 15.4338C125.515 16.4608 126.348 17.2933 127.375 17.2933Z" fill="#CBCBCB"/>
<path d="M178.14 17.2933C179.167 17.2933 180 16.4608 180 15.4338C180 14.4068 179.167 13.5742 178.14 13.5742C177.113 13.5742 176.281 14.4068 176.281 15.4338C176.281 16.4608 177.113 17.2933 178.14 17.2933Z" fill="#CBCBCB"/>
<path d="M152.851 17.2933C153.878 17.2933 154.71 16.4608 154.71 15.4338C154.71 14.4068 153.878 13.5742 152.851 13.5742C151.824 13.5742 150.991 14.4068 150.991 15.4338C150.991 16.4608 151.824 17.2933 152.851 17.2933Z" fill="#CBCBCB"/>
<path d="M94.6464 33.658C93.2488 33.658 91.8826 33.2436 90.7206 32.4671C89.5585 31.6907 88.6528 30.5871 88.118 29.2959C87.5831 28.0047 87.4432 26.5839 87.7159 25.2131C87.9885 23.8424 88.6615 22.5833 89.6498 21.5951C90.638 20.6068 91.8971 19.9338 93.2678 19.6612C94.6386 19.3885 96.0594 19.5285 97.3506 20.0633C98.6418 20.5981 99.7454 21.5038 100.522 22.6659C101.298 23.8279 101.713 25.1941 101.713 26.5917C101.711 28.4652 100.965 30.2613 99.6407 31.586C98.316 32.9107 96.5199 33.6559 94.6464 33.658ZM94.6464 19.8973C93.3224 19.8973 92.0281 20.2899 90.9272 21.0255C89.8263 21.7611 88.9683 22.8066 88.4616 24.0299C87.9549 25.2531 87.8223 26.5991 88.0806 27.8977C88.3389 29.1963 88.9765 30.3891 89.9127 31.3254C90.849 32.2616 92.0418 32.8992 93.3404 33.1575C94.639 33.4158 95.985 33.2832 97.2082 32.7765C98.4315 32.2699 99.477 31.4118 100.213 30.3109C100.948 29.21 101.341 27.9157 101.341 26.5917C101.339 24.8169 100.633 23.1153 99.3778 21.8603C98.1228 20.6052 96.4213 19.8993 94.6464 19.8973Z" fill="#3F3D56"/>
<path d="M94.6465 31.5078C97.3615 31.5078 99.5624 29.3068 99.5624 26.5918C99.5624 23.8767 97.3615 21.6758 94.6465 21.6758C91.9314 21.6758 89.7305 23.8767 89.7305 26.5918C89.7305 29.3068 91.9314 31.5078 94.6465 31.5078Z" fill="#1270B0"/>
<path d="M94.1778 28.6658L92.7065 26.7739L93.5621 26.1083L94.2589 27.0041L96.6124 24.5195L97.3993 25.2652L94.1778 28.6658Z" fill="white"/>
<path d="M60.8022 44.8154C64.6022 44.8154 67.6826 41.735 67.6826 37.935C67.6826 34.1351 64.6022 31.0547 60.8022 31.0547C57.0023 31.0547 53.9219 34.1351 53.9219 37.935C53.9219 41.735 57.0023 44.8154 60.8022 44.8154Z" fill="white"/>
<path d="M60.8022 45.0018C59.4046 45.0018 58.0384 44.5873 56.8763 43.8109C55.7143 43.0344 54.8086 41.9308 54.2737 40.6396C53.7389 39.3484 53.599 37.9276 53.8716 36.5569C54.1443 35.1862 54.8173 33.9271 55.8055 32.9388C56.7938 31.9506 58.0529 31.2776 59.4236 31.0049C60.7943 30.7323 62.2151 30.8722 63.5063 31.407C64.7975 31.9419 65.9011 32.8476 66.6776 34.0096C67.454 35.1717 67.8685 36.5379 67.8685 37.9355C67.8664 39.8089 67.1212 41.605 65.7965 42.9298C64.4717 44.2545 62.6756 44.9997 60.8022 45.0018ZM60.8022 31.2411C59.4781 31.2411 58.1838 31.6337 57.0829 32.3693C55.9821 33.1049 55.124 34.1504 54.6173 35.3736C54.1107 36.5969 53.9781 37.9429 54.2364 39.2415C54.4947 40.5401 55.1323 41.7329 56.0685 42.6691C57.0047 43.6053 58.1976 44.2429 59.4962 44.5012C60.7947 44.7595 62.1408 44.627 63.364 44.1203C64.5872 43.6136 65.6328 42.7556 66.3684 41.6547C67.1039 40.5538 67.4966 39.2595 67.4966 37.9355C67.4946 36.1606 66.7886 34.459 65.5336 33.204C64.2786 31.949 62.577 31.2431 60.8022 31.2411Z" fill="#3F3D56"/>
<path d="M60.8022 42.8495C63.5172 42.8495 65.7182 40.6486 65.7182 37.9336C65.7182 35.2185 63.5172 33.0176 60.8022 33.0176C58.0872 33.0176 55.8862 35.2185 55.8862 37.9336C55.8862 40.6486 58.0872 42.8495 60.8022 42.8495Z" fill="#1270B0"/>
<path d="M60.3341 40.0095L58.8628 38.1176L59.7184 37.4521L60.4152 38.3478L62.7686 35.8633L63.5556 36.609L60.3341 40.0095Z" fill="white"/>
</g>
<defs>
<clipPath id="clip0_3582_1833">
<rect width="180" height="98.3706" fill="white"/>
</clipPath>
</defs>
</svg>
