<svg width="120" height="57" viewBox="0 0 120 57" fill="none" xmlns="http://www.w3.org/2000/svg">
<path d="M16.0387 14.0862C18.8953 14.0862 21.1398 14.4001 22.7721 15.028C24.4045 15.6244 25.566 16.676 26.2566 18.1828C26.9786 19.6582 27.3396 21.7614 27.3396 24.4924C27.3396 27.2235 26.9943 29.3424 26.3037 30.8492C25.6444 32.356 24.53 33.4076 22.9605 34.004C21.4223 34.6004 19.3662 34.8987 16.7921 34.8987C15.3795 34.8987 14.014 34.8516 12.6955 34.7574C11.4085 34.6632 10.1999 34.5377 9.06983 34.3807C7.97113 34.2237 7.02939 34.0668 6.24461 33.9098C5.45983 33.7215 4.91048 33.5645 4.59657 33.439L4.73783 30.2841C6.52713 30.2841 8.36352 30.2841 10.247 30.2841C12.1619 30.2841 14.061 30.2841 15.9445 30.2841C17.3257 30.2527 18.4087 30.0801 19.1935 29.7662C20.0097 29.4523 20.5747 28.8872 20.8887 28.071C21.234 27.2235 21.4066 26.0306 21.4066 24.4924C21.4066 22.9543 21.234 21.7771 20.8887 20.9609C20.5747 20.1133 20.0097 19.5326 19.1935 19.2187C18.4087 18.8734 17.3257 18.7007 15.9445 18.7007C13.1821 18.7007 10.812 18.7164 8.83439 18.7478C6.85674 18.7792 5.50691 18.8263 4.78491 18.8891L4.1257 14.51C5.38135 14.3844 6.55852 14.2903 7.65722 14.2275C8.78731 14.1647 9.99587 14.1333 11.2829 14.1333C12.6013 14.1019 14.1866 14.0862 16.0387 14.0862ZM10.0116 14.51V47H4.1257V14.51H10.0116ZM43.7041 23.3153C45.5562 23.3153 47.1101 23.5664 48.3657 24.0686C49.6528 24.5395 50.6259 25.3557 51.2851 26.5172C51.9443 27.6786 52.274 29.2796 52.274 31.32V47H47.7536L46.9531 42.0088L46.5293 41.3496V31.273C46.5293 30.0487 46.2468 29.1697 45.6818 28.6361C45.1167 28.071 44.0337 27.7885 42.4328 27.7885C41.2399 27.7885 39.7331 27.8356 37.9124 27.9298C36.1231 28.024 34.3181 28.1495 32.4974 28.3065L31.9795 24.3983C33.0782 24.1785 34.3181 23.9902 35.6993 23.8332C37.0806 23.6763 38.4775 23.5507 39.8901 23.4565C41.3027 23.3623 42.574 23.3153 43.7041 23.3153ZM49.8254 32.7797L49.7783 36.3113H39.1838C38.242 36.3427 37.5671 36.5938 37.159 37.0647C36.751 37.5355 36.5469 38.179 36.5469 38.9952V40.2666C36.5469 41.2083 36.798 41.9303 37.3003 42.4326C37.8026 42.9034 38.5873 43.1389 39.6546 43.1389C40.5022 43.1389 41.444 42.9662 42.4799 42.6209C43.5158 42.2756 44.536 41.7733 45.5405 41.1141C46.5764 40.4549 47.5025 39.6701 48.3186 38.7598V41.7263C48.0047 42.1971 47.5496 42.7622 46.9531 43.4214C46.3567 44.0492 45.619 44.677 44.74 45.3049C43.8925 45.9327 42.9036 46.4507 41.7736 46.8587C40.6749 47.2668 39.4506 47.4709 38.1008 47.4709C36.7196 47.4709 35.4796 47.2354 34.3809 46.7646C33.2822 46.2623 32.419 45.5403 31.7911 44.5986C31.1633 43.6254 30.8494 42.4326 30.8494 41.02V38.5714C30.8494 36.7507 31.4458 35.3381 32.6387 34.3336C33.863 33.2977 35.5267 32.7797 37.6299 32.7797H49.8254ZM73.6772 23.3153C77.9778 23.3153 80.1281 25.4342 80.1281 29.672V47H74.4306V31.4142C74.4306 30.1586 74.2108 29.2953 73.7714 28.8244C73.3319 28.3536 72.5942 28.1181 71.5583 28.1181C70.3968 28.1181 69.2039 28.385 67.9797 28.9186C66.7554 29.4209 65.28 30.1586 63.5535 31.1317L63.3181 27.6943C65.0132 26.2817 66.7397 25.1987 68.4976 24.4453C70.2555 23.692 71.9821 23.3153 73.6772 23.3153ZM63.1297 23.8803L63.6947 28.4007L64.1656 29.0599V47H58.4681V23.8803H63.1297ZM112.725 14.0391L112.678 40.0311C112.678 40.9101 112.929 41.585 113.431 42.0559C113.934 42.4953 114.656 42.7151 115.597 42.7151H117.622L118.281 46.7175C117.936 46.8744 117.45 47.0157 116.822 47.1413C116.225 47.2668 115.597 47.3453 114.938 47.3767C114.31 47.4395 113.761 47.4709 113.29 47.4709C111.375 47.4709 109.853 46.9529 108.723 45.917C107.593 44.8811 107.028 43.39 107.028 41.4437V14.0391H112.725Z" fill="black"/>
<rect x="83.522" y="23.543" width="19.8261" height="5.57609" fill="#1270B0"/>
<rect x="83.522" y="32.2168" width="19.8261" height="5.57609" fill="#1270B0"/>
<rect x="83.522" y="41.5117" width="19.8261" height="5.57609" fill="#1270B0"/>
</svg>
